<?xml version="1.0"?>
<svg xmlns="http://www.w3.org/2000/svg" xmlns:xlink="http://www.w3.org/1999/xlink" version="1.1" id="Color" x="0px" y="0px" viewBox="0 0 24 24" enable-background="new 0 0 24 24" xml:space="preserve" width="512" height="512"><path fill="#CFD8DC" d="M3,6c1.654,0,3-1.346,3-3c0-1.654-1.346-3-3-3C1.346,0,0,1.346,0,3C0,4.654,1.346,6,3,6L3,6z"/><path fill="#CFD8DC" d="M3,15c1.654,0,3-1.346,3-3c0-1.654-1.346-3-3-3c-1.654,0-3,1.346-3,3C0,13.654,1.346,15,3,15L3,15z"/><path fill="#CFD8DC" d="M3,24c1.654,0,3-1.346,3-3c0-1.654-1.346-3-3-3c-1.654,0-3,1.346-3,3C0,22.654,1.346,24,3,24L3,24z"/><path fill="#B4BCC0" d="M3,0C1.346,0,0,1.346,0,3c0,1.654,1.346,3,3,3l0,0V0L3,0L3,0z"/><path fill="#B4BCC0" d="M3,9c-1.654,0-3,1.346-3,3c0,1.654,1.346,3,3,3l0,0V9L3,9L3,9z"/><path fill="#B4BCC0" d="M3,18c-1.654,0-3,1.346-3,3c0,1.654,1.346,3,3,3l0,0V18L3,18L3,18z"/><path fill="#90A4AE" d="M23.25,1H8.75C8.336,1,8,1.336,8,1.75C8,2.164,8.336,2.5,8.75,2.5h14.5C23.664,2.5,24,2.164,24,1.75  C24,1.336,23.664,1,23.25,1L23.25,1z"/><path fill="#90A4AE" d="M23.25,4H8.75C8.336,4,8,4.336,8,4.75C8,5.164,8.336,5.5,8.75,5.5h14.5C23.664,5.5,24,5.164,24,4.75  C24,4.336,23.664,4,23.25,4L23.25,4z"/><path fill="#90A4AE" d="M23.25,10H8.75C8.336,10,8,10.336,8,10.75c0,0.414,0.336,0.75,0.75,0.75h14.5c0.414,0,0.75-0.336,0.75-0.75  C24,10.336,23.664,10,23.25,10L23.25,10z"/><path fill="#90A4AE" d="M23.25,13H8.75C8.336,13,8,13.336,8,13.75c0,0.414,0.336,0.75,0.75,0.75h14.5c0.414,0,0.75-0.336,0.75-0.75  C24,13.336,23.664,13,23.25,13L23.25,13z"/><path fill="#90A4AE" d="M23.25,19H8.75C8.336,19,8,19.336,8,19.75c0,0.414,0.336,0.75,0.75,0.75h14.5c0.414,0,0.75-0.336,0.75-0.75  C24,19.336,23.664,19,23.25,19L23.25,19z"/><path fill="#90A4AE" d="M23.25,22H8.75C8.336,22,8,22.336,8,22.75c0,0.414,0.336,0.75,0.75,0.75h14.5c0.414,0,0.75-0.336,0.75-0.75  C24,22.336,23.664,22,23.25,22L23.25,22z"/><path fill="#7D8F97" d="M16,1H8.75C8.336,1,8,1.336,8,1.75C8,2.164,8.336,2.5,8.75,2.5H16V1L16,1z"/><path fill="#7D8F97" d="M16,4H8.75C8.336,4,8,4.336,8,4.75C8,5.164,8.336,5.5,8.75,5.5H16V4L16,4z"/><path fill="#7D8F97" d="M16,10H8.75C8.336,10,8,10.336,8,10.75c0,0.414,0.336,0.75,0.75,0.75H16V10L16,10z"/><path fill="#7D8F97" d="M16,13H8.75C8.336,13,8,13.336,8,13.75c0,0.414,0.336,0.75,0.75,0.75H16V13L16,13z"/><path fill="#7D8F97" d="M16,19H8.75C8.336,19,8,19.336,8,19.75c0,0.414,0.336,0.75,0.75,0.75H16V19L16,19z"/><path fill="#7D8F97" d="M16,22H8.75C8.336,22,8,22.336,8,22.75c0,0.414,0.336,0.75,0.75,0.75H16V22L16,22z"/></svg>
